{
    "asset" : {
        "generator" : "Khronos glTF Blender I/O v1.5.17",
        "version" : "2.0"
    },
    "scene" : 0,
    "scenes" : [
        {
            "name" : "Scene",
            "nodes" : [
                0,
                1,
                2,
                3,
                4,
                5
            ]
        }
    ],
    "nodes" : [
        {
            "name" : "Light",
            "rotation" : [
                0.16907575726509094,
                0.7558803558349609,
                -0.27217137813568115,
                0.570947527885437
            ],
            "translation" : [
                9.731851577758789,
                3.6776585578918457,
                5.432628631591797
            ]
        },
        {
            "name" : "Camera",
            "rotation" : [
                0.7071068286895752,
                0,
                0,
                0.7071067094802856
            ],
            "translation" : [
                0.22127914428710938,
                -1.324845552444458,
                9.029143333435059
            ]
        },
        {
            "mesh" : 0,
            "name" : "Roundcube"
        },
        {
            "mesh" : 1,
            "name" : "Roundcube.001",
            "translation" : [
                0,
                -2.2883291244506836,
                0
            ]
        },
        {
            "name" : "Empty",
            "rotation" : [
                0.7071068286895752,
                0,
                0,
                0.7071067094802856
            ],
            "scale" : [
                0.1498609036207199,
                0.1498609036207199,
                0.1498609036207199
            ],
            "translation" : [
                -0.008516719564795494,
                -2.2606165409088135,
                0
            ]
        },
        {
            "name" : "Empty.001",
            "rotation" : [
                0.7071068286895752,
                0,
                0,
                0.7071067094802856
            ],
            "scale" : [
                0.9927492141723633,
                0.9927492141723633,
                0.9927492141723633
            ],
            "translation" : [
                -0.1303086280822754,
                -3.532182455062866,
                0
            ]
        }
    ],
    "materials" : [
        {
            "doubleSided" : true,
            "name" : "billy_material",
            "pbrMetallicRoughness" : {
                "baseColorTexture" : {
                    "index" : 0
                },
                "metallicFactor" : 0,
                "roughnessFactor" : 0.5
            }
        }
    ],
    "meshes" : [
        {
            "name" : "Roundcube",
            "primitives" : [
                {
                    "attributes" : {
                        "POSITION" : 0,
                        "NORMAL" : 1,
                        "TEXCOORD_0" : 2
                    },
                    "indices" : 3,
                    "material" : 0
                }
            ]
        },
        {
            "name" : "Roundcube.001",
            "primitives" : [
                {
                    "attributes" : {
                        "POSITION" : 4,
                        "NORMAL" : 5,
                        "TEXCOORD_0" : 6
                    },
                    "indices" : 7,
                    "material" : 0
                }
            ]
        }
    ],
    "textures" : [
        {
            "sampler" : 0,
            "source" : 0
        }
    ],
    "images" : [
        {
            "bufferView" : 4,
            "mimeType" : "image/jpeg",
            "name" : "billy_texture"
        }
    ],
    "accessors" : [
        {
            "bufferView" : 0,
            "componentType" : 5126,
            "count" : 1902,
            "max" : [
                2.033738374710083,
                0.9249366521835327,
                0.9577365517616272
            ],
            "min" : [
                -2.033738374710083,
                -1.57452392578125,
                -0.957736611366272
            ],
            "type" : "VEC3"
        },
        {
            "bufferView" : 1,
            "componentType" : 5126,
            "count" : 1902,
            "type" : "VEC3"
        },
        {
            "bufferView" : 2,
            "componentType" : 5126,
            "count" : 1902,
            "type" : "VEC2"
        },
        {
            "bufferView" : 3,
            "componentType" : 5123,
            "count" : 9216,
            "type" : "SCALAR"
        },
        {
            "bufferView" : 5,
            "componentType" : 5126,
            "count" : 3676,
            "max" : [
                1.4826122522354126,
                0.925591230392456,
                0.9577365517616272
            ],
            "min" : [
                -1.4826123714447021,
                -1.141046404838562,
                -0.9577365517616272
            ],
            "type" : "VEC3"
        },
        {
            "bufferView" : 6,
            "componentType" : 5126,
            "count" : 3676,
            "type" : "VEC3"
        },
        {
            "bufferView" : 7,
            "componentType" : 5126,
            "count" : 3676,
            "type" : "VEC2"
        },
        {
            "bufferView" : 8,
            "componentType" : 5123,
            "count" : 17664,
            "type" : "SCALAR"
        }
    ],
    "bufferViews" : [
        {
            "buffer" : 0,
            "byteLength" : 22824,
            "byteOffset" : 0
        },
        {
            "buffer" : 0,
            "byteLength" : 22824,
            "byteOffset" : 22824
        },
        {
            "buffer" : 0,
            "byteLength" : 15216,
            "byteOffset" : 45648
        },
        {
            "buffer" : 0,
            "byteLength" : 18432,
            "byteOffset" : 60864
        },
        {
            "buffer" : 0,
            "byteLength" : 123490,
            "byteOffset" : 79296
        },
        {
            "buffer" : 0,
            "byteLength" : 44112,
            "byteOffset" : 202788
        },
        {
            "buffer" : 0,
            "byteLength" : 44112,
            "byteOffset" : 246900
        },
        {
            "buffer" : 0,
            "byteLength" : 29408,
            "byteOffset" : 291012
        },
        {
            "buffer" : 0,
            "byteLength" : 35328,
            "byteOffset" : 320420
        }
    ],
    "samplers" : [
        {
            "magFilter" : 9728,
            "minFilter" : 9984
        }
    ],
    "buffers" : [
        {
            "byteLength" : 355748,
            "uri" : "data:application/octet-stream;base64,"
        }
    ]
}
