{
    "asset" : {
        "generator" : "Khronos glTF Blender I/O v1.5.17",
        "version" : "2.0"
    },
    "scene" : 0,
    "scenes" : [
        {
            "name" : "Scene",
            "nodes" : [
                0,
                1,
                2,
                3,
                4,
                5
            ]
        }
    ],
    "nodes" : [
        {
            "name" : "Light",
            "rotation" : [
                0.16907575726509094,
                0.7558803558349609,
                -0.27217137813568115,
                0.570947527885437
            ],
            "translation" : [
                9.731851577758789,
                3.6776585578918457,
                5.432628631591797
            ]
        },
        {
            "name" : "Camera",
            "rotation" : [
                0.7071068286895752,
                0,
                0,
                0.7071067094802856
            ],
            "translation" : [
                0.22127914428710938,
                -1.324845552444458,
                9.029143333435059
            ]
        },
        {
            "mesh" : 0,
            "name" : "Roundcube"
        },
        {
            "mesh" : 1,
            "name" : "Roundcube.001",
            "translation" : [
                0,
                -2.2883291244506836,
                0
            ]
        },
        {
            "name" : "Empty",
            "rotation" : [
                0.7071068286895752,
                0,
                0,
                0.7071067094802856
            ],
            "scale" : [
                0.1498609036207199,
                0.1498609036207199,
                0.1498609036207199
            ],
            "translation" : [
                -0.008516719564795494,
                -2.2606165409088135,
                0
            ]
        },
        {
            "name" : "Empty.001",
            "rotation" : [
                0.7071068286895752,
                0,
                0,
                0.7071067094802856
            ],
            "scale" : [
                0.9927492141723633,
                0.9927492141723633,
                0.9927492141723633
            ],
            "translation" : [
                -0.1303086280822754,
                -3.532182455062866,
                0
            ]
        }
    ],
    "materials" : [
        {
            "doubleSided" : true,
            "name" : "billy_material",
            "pbrMetallicRoughness" : {
                "baseColorTexture" : {
                    "index" : 0
                },
                "metallicFactor" : 0,
                "roughnessFactor" : 0.5
            }
        }
    ],
    "meshes" : [
        {
            "name" : "Roundcube",
            "primitives" : [
                {
                    "attributes" : {
                        "POSITION" : 0,
                        "NORMAL" : 1,
                        "TEXCOORD_0" : 2
                    },
                    "indices" : 3,
                    "material" : 0
                }
            ]
        },
        {
            "name" : "Roundcube.001",
            "primitives" : [
                {
                    "attributes" : {
                        "POSITION" : 4,
                        "NORMAL" : 5,
                        "TEXCOORD_0" : 6
                    },
                    "indices" : 7,
                    "material" : 0
                }
            ]
        }
    ],
    "textures" : [
        {
            "sampler" : 0,
            "source" : 0
        }
    ],
    "images" : [
        {
            "bufferView" : 4,
            "mimeType" : "image/png",
            "name" : "billy_texture"
        }
    ],
    "accessors" : [
        {
            "bufferView" : 0,
            "componentType" : 5126,
            "count" : 114,
            "max" : [
                2.0760016441345215,
                1,
                1
            ],
            "min" : [
                -2.0760016441345215,
                -1.65165114402771,
                -1
            ],
            "type" : "VEC3"
        },
        {
            "bufferView" : 1,
            "componentType" : 5126,
            "count" : 114,
            "type" : "VEC3"
        },
        {
            "bufferView" : 2,
            "componentType" : 5126,
            "count" : 114,
            "type" : "VEC2"
        },
        {
            "bufferView" : 3,
            "componentType" : 5123,
            "count" : 576,
            "type" : "SCALAR"
        },
        {
            "bufferView" : 5,
            "componentType" : 5126,
            "count" : 214,
            "max" : [
                1.5099555253982544,
                0.9905268549919128,
                1
            ],
            "min" : [
                -1.5099555253982544,
                -1.1696696281433105,
                -1
            ],
            "type" : "VEC3"
        },
        {
            "bufferView" : 6,
            "componentType" : 5126,
            "count" : 214,
            "type" : "VEC3"
        },
        {
            "bufferView" : 7,
            "componentType" : 5126,
            "count" : 214,
            "type" : "VEC2"
        },
        {
            "bufferView" : 8,
            "componentType" : 5123,
            "count" : 1056,
            "type" : "SCALAR"
        }
    ],
    "bufferViews" : [
        {
            "buffer" : 0,
            "byteLength" : 1368,
            "byteOffset" : 0
        },
        {
            "buffer" : 0,
            "byteLength" : 1368,
            "byteOffset" : 1368
        },
        {
            "buffer" : 0,
            "byteLength" : 912,
            "byteOffset" : 2736
        },
        {
            "buffer" : 0,
            "byteLength" : 1152,
            "byteOffset" : 3648
        },
        {
            "buffer" : 0,
            "byteLength" : 272155,
            "byteOffset" : 4800
        },
        {
            "buffer" : 0,
            "byteLength" : 2568,
            "byteOffset" : 276956
        },
        {
            "buffer" : 0,
            "byteLength" : 2568,
            "byteOffset" : 279524
        },
        {
            "buffer" : 0,
            "byteLength" : 1712,
            "byteOffset" : 282092
        },
        {
            "buffer" : 0,
            "byteLength" : 2112,
            "byteOffset" : 283804
        }
    ],
    "samplers" : [
        {
            "magFilter" : 9728,
            "minFilter" : 9984
        }
    ],
    "buffers" : [
        {
            "byteLength" : 285916,
            "uri" : "data:application/octet-stream;base64,"
        }
    ]
}
