{
    "asset" : {
        "generator" : "Khronos glTF Blender I/O v1.5.17",
        "version" : "2.0"
    },
    "scene" : 0,
    "scenes" : [
        {
            "name" : "Scene",
            "nodes" : [
                0,
                1,
                2,
                3,
                4,
                5,
                6,
                7,
                8
            ]
        }
    ],
    "nodes" : [
        {
            "mesh" : 0,
            "name" : "Claw1",
            "rotation" : [
                0.7026240229606628,
                -0.3823810815811157,
                0.4212518334388733,
                0.42737701535224915
            ],
            "scale" : [
                0.03146440163254738,
                0.03146440163254738,
                0.03146440163254738
            ],
            "translation" : [
                -0.33473074436187744,
                0.5058561563491821,
                0.2525663375854492
            ]
        },
        {
            "mesh" : 1,
            "name" : "Claw2",
            "rotation" : [
                0.4840278923511505,
                0.3023797869682312,
                -0.6431768536567688,
                0.5104967951774597
            ],
            "scale" : [
                0.0321577712893486,
                0.0321577712893486,
                0.0321577750146389
            ],
            "translation" : [
                -0.029352188110351562,
                0.47858089208602905,
                0.16153529286384583
            ]
        },
        {
            "mesh" : 2,
            "name" : "Claw3",
            "rotation" : [
                0.09734556078910828,
                -0.33360058069229126,
                0.786433756351471,
                0.5106431841850281
            ],
            "scale" : [
                0.027582136914134026,
                0.027582136914134026,
                0.027582138776779175
            ],
            "translation" : [
                -0.47096437215805054,
                0.5377736687660217,
                -0.10838085412979126
            ]
        },
        {
            "mesh" : 3,
            "name" : "Claw3.001",
            "rotation" : [
                -0.32274821400642395,
                -0.571959376335144,
                0.7427334189414978,
                -0.13054941594600677
            ],
            "scale" : [
                0.025869255885481834,
                0.025869259610772133,
                0.025869259610772133
            ],
            "translation" : [
                -0.14878197014331818,
                0.5232741236686707,
                -0.14113247394561768
            ]
        },
        {
            "mesh" : 4,
            "name" : "Plane",
            "scale" : [
                0.3289443254470825,
                0.3289443254470825,
                0.3289443254470825
            ],
            "translation" : [
                -0.23345184326171875,
                -0.1020098328590393,
                0.06223577633500099
            ]
        },
        {
            "mesh" : 5,
            "name" : "Cube",
            "scale" : [
                0.5341352820396423,
                0.5341352820396423,
                0.5341352820396423
            ],
            "translation" : [
                -0.008758563548326492,
                -0.5618020296096802,
                0.0336441695690155
            ]
        },
        {
            "mesh" : 6,
            "name" : "Cube.001",
            "rotation" : [
                0,
                0.14984667301177979,
                0,
                0.9887092709541321
            ],
            "scale" : [
                0.08125633001327515,
                0.08125633001327515,
                0.08125633001327515
            ],
            "translation" : [
                -0.5474827289581299,
                -0.07317963242530823,
                0.17184534668922424
            ]
        },
        {
            "mesh" : 7,
            "name" : "Cube.002",
            "rotation" : [
                0,
                0.14984667301177979,
                0,
                0.9887092709541321
            ],
            "scale" : [
                0.08125633001327515,
                0.08125633001327515,
                0.08125633001327515
            ],
            "translation" : [
                -0.5419734716415405,
                0.09841245412826538,
                0.13900534808635712
            ]
        },
        {
            "mesh" : 8,
            "name" : "Cube.003",
            "rotation" : [
                0,
                0.14984667301177979,
                0,
                0.9887092709541321
            ],
            "scale" : [
                0.08125633001327515,
                0.08125633001327515,
                0.08125633001327515
            ],
            "translation" : [
                -0.5580459833145142,
                0.29133716225624084,
                0.14350196719169617
            ]
        }
    ],
    "materials" : [
        {
            "doubleSided" : true,
            "name" : "Material",
            "pbrMetallicRoughness" : {
                "baseColorFactor" : [
                    0.3423829674720764,
                    0.3423829674720764,
                    0.3423829674720764,
                    1
                ],
                "metallicFactor" : 0.7210884094238281
            }
        },
        {
            "doubleSided" : true,
            "name" : "TowerWallMaterial",
            "pbrMetallicRoughness" : {
                "baseColorFactor" : [
                    0.05479568615555763,
                    0.059266094118356705,
                    0.059266094118356705,
                    1
                ],
                "metallicFactor" : 0,
                "roughnessFactor" : 0.8367346525192261
            }
        }
    ],
    "meshes" : [
        {
            "name" : "Cube",
            "primitives" : [
                {
                    "attributes" : {
                        "POSITION" : 0,
                        "NORMAL" : 1,
                        "TEXCOORD_0" : 2
                    },
                    "indices" : 3,
                    "material" : 0
                }
            ]
        },
        {
            "name" : "Cube.001",
            "primitives" : [
                {
                    "attributes" : {
                        "POSITION" : 4,
                        "NORMAL" : 5,
                        "TEXCOORD_0" : 6
                    },
                    "indices" : 7,
                    "material" : 0
                }
            ]
        },
        {
            "name" : "Cube.004",
            "primitives" : [
                {
                    "attributes" : {
                        "POSITION" : 8,
                        "NORMAL" : 9,
                        "TEXCOORD_0" : 10
                    },
                    "indices" : 11,
                    "material" : 0
                }
            ]
        },
        {
            "name" : "Cube.005",
            "primitives" : [
                {
                    "attributes" : {
                        "POSITION" : 12,
                        "NORMAL" : 13,
                        "TEXCOORD_0" : 14
                    },
                    "indices" : 15,
                    "material" : 0
                }
            ]
        },
        {
            "name" : "Plane",
            "primitives" : [
                {
                    "attributes" : {
                        "POSITION" : 16,
                        "NORMAL" : 17,
                        "TEXCOORD_0" : 18
                    },
                    "indices" : 19,
                    "material" : 1
                }
            ]
        },
        {
            "name" : "Cube.002",
            "primitives" : [
                {
                    "attributes" : {
                        "POSITION" : 20,
                        "NORMAL" : 21,
                        "TEXCOORD_0" : 22
                    },
                    "indices" : 23,
                    "material" : 1
                }
            ]
        },
        {
            "name" : "Cube.003",
            "primitives" : [
                {
                    "attributes" : {
                        "POSITION" : 24,
                        "NORMAL" : 25,
                        "TEXCOORD_0" : 26
                    },
                    "indices" : 27,
                    "material" : 0
                }
            ]
        },
        {
            "name" : "Cube.009",
            "primitives" : [
                {
                    "attributes" : {
                        "POSITION" : 28,
                        "NORMAL" : 29,
                        "TEXCOORD_0" : 30
                    },
                    "indices" : 31,
                    "material" : 0
                }
            ]
        },
        {
            "name" : "Cube.010",
            "primitives" : [
                {
                    "attributes" : {
                        "POSITION" : 32,
                        "NORMAL" : 33,
                        "TEXCOORD_0" : 34
                    },
                    "indices" : 35,
                    "material" : 0
                }
            ]
        }
    ],
    "accessors" : [
        {
            "bufferView" : 0,
            "componentType" : 5126,
            "count" : 160,
            "max" : [
                2.2076094150543213,
                6.6300458908081055,
                1.6763792037963867
            ],
            "min" : [
                -2.4213149547576904,
                -1,
                -10.115196228027344
            ],
            "type" : "VEC3"
        },
        {
            "bufferView" : 1,
            "componentType" : 5126,
            "count" : 160,
            "type" : "VEC3"
        },
        {
            "bufferView" : 2,
            "componentType" : 5126,
            "count" : 160,
            "type" : "VEC2"
        },
        {
            "bufferView" : 3,
            "componentType" : 5123,
            "count" : 240,
            "type" : "SCALAR"
        },
        {
            "bufferView" : 4,
            "componentType" : 5126,
            "count" : 160,
            "max" : [
                2.2076094150543213,
                6.6300458908081055,
                1.6763792037963867
            ],
            "min" : [
                -2.4213149547576904,
                -1,
                -9.76998519897461
            ],
            "type" : "VEC3"
        },
        {
            "bufferView" : 5,
            "componentType" : 5126,
            "count" : 160,
            "type" : "VEC3"
        },
        {
            "bufferView" : 6,
            "componentType" : 5126,
            "count" : 160,
            "type" : "VEC2"
        },
        {
            "bufferView" : 7,
            "componentType" : 5123,
            "count" : 240,
            "type" : "SCALAR"
        },
        {
            "bufferView" : 8,
            "componentType" : 5126,
            "count" : 192,
            "max" : [
                4.907026290893555,
                7.068437576293945,
                2.4860446453094482
            ],
            "min" : [
                -3.363682746887207,
                -2.2631583213806152,
                -8.517114639282227
            ],
            "type" : "VEC3"
        },
        {
            "bufferView" : 9,
            "componentType" : 5126,
            "count" : 192,
            "type" : "VEC3"
        },
        {
            "bufferView" : 10,
            "componentType" : 5126,
            "count" : 192,
            "type" : "VEC2"
        },
        {
            "bufferView" : 11,
            "componentType" : 5123,
            "count" : 288,
            "type" : "SCALAR"
        },
        {
            "bufferView" : 12,
            "componentType" : 5126,
            "count" : 192,
            "max" : [
                4.680169105529785,
                6.736902236938477,
                2.4860446453094482
            ],
            "min" : [
                -3.363682746887207,
                -2.2631583213806152,
                -11.418570518493652
            ],
            "type" : "VEC3"
        },
        {
            "bufferView" : 13,
            "componentType" : 5126,
            "count" : 192,
            "type" : "VEC3"
        },
        {
            "bufferView" : 14,
            "componentType" : 5126,
            "count" : 192,
            "type" : "VEC2"
        },
        {
            "bufferView" : 15,
            "componentType" : 5123,
            "count" : 288,
            "type" : "SCALAR"
        },
        {
            "bufferView" : 16,
            "componentType" : 5126,
            "count" : 6143,
            "max" : [
                0.9166667461395264,
                0,
                0.9166667461395264
            ],
            "min" : [
                -0.9166667461395264,
                0,
                -0.9166667461395264
            ],
            "type" : "VEC3"
        },
        {
            "bufferView" : 17,
            "componentType" : 5126,
            "count" : 6143,
            "type" : "VEC3"
        },
        {
            "bufferView" : 18,
            "componentType" : 5126,
            "count" : 6143,
            "type" : "VEC2"
        },
        {
            "bufferView" : 19,
            "componentType" : 5123,
            "count" : 24576,
            "type" : "SCALAR"
        },
        {
            "bufferView" : 20,
            "componentType" : 5126,
            "count" : 857,
            "max" : [
                3.3429477214813232,
                1.0076829195022583,
                2.489419937133789
            ],
            "min" : [
                -3.70383358001709,
                -1.324941873550415,
                -2.6236329078674316
            ],
            "type" : "VEC3"
        },
        {
            "bufferView" : 21,
            "componentType" : 5126,
            "count" : 857,
            "type" : "VEC3"
        },
        {
            "bufferView" : 22,
            "componentType" : 5126,
            "count" : 857,
            "type" : "VEC2"
        },
        {
            "bufferView" : 23,
            "componentType" : 5123,
            "count" : 1296,
            "type" : "SCALAR"
        },
        {
            "bufferView" : 24,
            "componentType" : 5126,
            "count" : 504,
            "max" : [
                9.147599220275879,
                3.0425305366516113,
                4.304110050201416
            ],
            "min" : [
                -1.1061731576919556,
                -1.6837571859359741,
                -5.151568412780762
            ],
            "type" : "VEC3"
        },
        {
            "bufferView" : 25,
            "componentType" : 5126,
            "count" : 504,
            "type" : "VEC3"
        },
        {
            "bufferView" : 26,
            "componentType" : 5126,
            "count" : 504,
            "type" : "VEC2"
        },
        {
            "bufferView" : 27,
            "componentType" : 5123,
            "count" : 756,
            "type" : "SCALAR"
        },
        {
            "bufferView" : 28,
            "componentType" : 5126,
            "count" : 504,
            "max" : [
                9.534101486206055,
                3.0425305366516113,
                4.439140319824219
            ],
            "min" : [
                -1.2083178758621216,
                -1.671614170074463,
                -4.864425182342529
            ],
            "type" : "VEC3"
        },
        {
            "bufferView" : 29,
            "componentType" : 5126,
            "count" : 504,
            "type" : "VEC3"
        },
        {
            "bufferView" : 30,
            "componentType" : 5126,
            "count" : 504,
            "type" : "VEC2"
        },
        {
            "bufferView" : 31,
            "componentType" : 5123,
            "count" : 756,
            "type" : "SCALAR"
        },
        {
            "bufferView" : 32,
            "componentType" : 5126,
            "count" : 1320,
            "max" : [
                9.00125789642334,
                4.250071048736572,
                4.482324600219727
            ],
            "min" : [
                -1.0519667863845825,
                -1.8852732181549072,
                -4.80501651763916
            ],
            "type" : "VEC3"
        },
        {
            "bufferView" : 33,
            "componentType" : 5126,
            "count" : 1320,
            "type" : "VEC3"
        },
        {
            "bufferView" : 34,
            "componentType" : 5126,
            "count" : 1320,
            "type" : "VEC2"
        },
        {
            "bufferView" : 35,
            "componentType" : 5123,
            "count" : 1980,
            "type" : "SCALAR"
        }
    ],
    "bufferViews" : [
        {
            "buffer" : 0,
            "byteLength" : 1920,
            "byteOffset" : 0
        },
        {
            "buffer" : 0,
            "byteLength" : 1920,
            "byteOffset" : 1920
        },
        {
            "buffer" : 0,
            "byteLength" : 1280,
            "byteOffset" : 3840
        },
        {
            "buffer" : 0,
            "byteLength" : 480,
            "byteOffset" : 5120
        },
        {
            "buffer" : 0,
            "byteLength" : 1920,
            "byteOffset" : 5600
        },
        {
            "buffer" : 0,
            "byteLength" : 1920,
            "byteOffset" : 7520
        },
        {
            "buffer" : 0,
            "byteLength" : 1280,
            "byteOffset" : 9440
        },
        {
            "buffer" : 0,
            "byteLength" : 480,
            "byteOffset" : 10720
        },
        {
            "buffer" : 0,
            "byteLength" : 2304,
            "byteOffset" : 11200
        },
        {
            "buffer" : 0,
            "byteLength" : 2304,
            "byteOffset" : 13504
        },
        {
            "buffer" : 0,
            "byteLength" : 1536,
            "byteOffset" : 15808
        },
        {
            "buffer" : 0,
            "byteLength" : 576,
            "byteOffset" : 17344
        },
        {
            "buffer" : 0,
            "byteLength" : 2304,
            "byteOffset" : 17920
        },
        {
            "buffer" : 0,
            "byteLength" : 2304,
            "byteOffset" : 20224
        },
        {
            "buffer" : 0,
            "byteLength" : 1536,
            "byteOffset" : 22528
        },
        {
            "buffer" : 0,
            "byteLength" : 576,
            "byteOffset" : 24064
        },
        {
            "buffer" : 0,
            "byteLength" : 73716,
            "byteOffset" : 24640
        },
        {
            "buffer" : 0,
            "byteLength" : 73716,
            "byteOffset" : 98356
        },
        {
            "buffer" : 0,
            "byteLength" : 49144,
            "byteOffset" : 172072
        },
        {
            "buffer" : 0,
            "byteLength" : 49152,
            "byteOffset" : 221216
        },
        {
            "buffer" : 0,
            "byteLength" : 10284,
            "byteOffset" : 270368
        },
        {
            "buffer" : 0,
            "byteLength" : 10284,
            "byteOffset" : 280652
        },
        {
            "buffer" : 0,
            "byteLength" : 6856,
            "byteOffset" : 290936
        },
        {
            "buffer" : 0,
            "byteLength" : 2592,
            "byteOffset" : 297792
        },
        {
            "buffer" : 0,
            "byteLength" : 6048,
            "byteOffset" : 300384
        },
        {
            "buffer" : 0,
            "byteLength" : 6048,
            "byteOffset" : 306432
        },
        {
            "buffer" : 0,
            "byteLength" : 4032,
            "byteOffset" : 312480
        },
        {
            "buffer" : 0,
            "byteLength" : 1512,
            "byteOffset" : 316512
        },
        {
            "buffer" : 0,
            "byteLength" : 6048,
            "byteOffset" : 318024
        },
        {
            "buffer" : 0,
            "byteLength" : 6048,
            "byteOffset" : 324072
        },
        {
            "buffer" : 0,
            "byteLength" : 4032,
            "byteOffset" : 330120
        },
        {
            "buffer" : 0,
            "byteLength" : 1512,
            "byteOffset" : 334152
        },
        {
            "buffer" : 0,
            "byteLength" : 15840,
            "byteOffset" : 335664
        },
        {
            "buffer" : 0,
            "byteLength" : 15840,
            "byteOffset" : 351504
        },
        {
            "buffer" : 0,
            "byteLength" : 10560,
            "byteOffset" : 367344
        },
        {
            "buffer" : 0,
            "byteLength" : 3960,
            "byteOffset" : 377904
        }
    ],
    "buffers" : [
        {
            "byteLength" : 381864,
            "uri" : "data:application/octet-stream;base64,"
        }
    ]
}
